<svg width="50" height="50" viewBox="0 0 119 50" fill="none" xmlns="http://www.w3.org/2000/svg">
<g clip-path="url(#clip0_5_876)">
<path d="M10.2827 14.76H14.4371L12.354 9.48584L10.2827 14.76Z" fill="#5F6073"/>
<path d="M61.7185 10.2396C61.2353 10.0693 60.7218 10.0019 60.211 10.0418H56.4523V13.0567H60.211C60.7218 13.0966 61.2353 13.0292 61.7185 12.8589C61.918 12.7059 62.0749 12.5042 62.174 12.2731C62.2731 12.042 62.3111 11.7894 62.2843 11.5394C62.3698 11.2912 62.3591 11.02 62.2543 10.7794C62.1496 10.5387 61.9584 10.3461 61.7185 10.2396Z" fill="#5F6073"/>
<path d="M102.038 4.58591V6.8471L100.908 4.58591H92.0516V6.8471L90.9121 4.58591H78.8445C77.021 4.5377 75.2123 4.92494 73.5684 5.71551V4.58591H65.1092V5.71551C64.0879 4.92536 62.8184 4.52489 61.5285 4.58591H31.1953L29.1221 9.29623L27.0488 4.58591H17.4422V6.8471L16.3106 4.58591H8.21941L4.46065 13.4408L0.108398 23.2392H9.71698L10.8466 20.2243H13.4856L14.6152 23.2392H25.5433V20.9781L26.485 23.2392H31.9589L32.9006 20.9781V23.2392H59.0814V18.341H59.4572C59.8331 18.341 59.8331 18.341 59.8331 18.9068V23.0612H73.3983V21.9316C74.9824 22.6997 76.7242 23.0865 78.4845 23.0612H84.1365L85.2661 20.0463H87.9031L89.0327 23.0612H99.9608V20.2243L101.656 23.0513H110.517V4.58591H102.038ZM38.3567 20.4123H35.1519V10.05L30.6295 20.4123H27.8045L23.2821 10.05V20.4123H16.8764L15.5589 17.5873H9.15118L8.02158 20.6022H4.44086L10.0948 7.21506H14.8052L20.0892 19.8485V7.21506H25.1754L29.3298 16.2578L33.0886 7.21506H38.3647L38.3567 20.4123ZM51.1682 10.05H43.8287V12.4991H50.9882V15.1282H43.8287V17.7653H51.1682V20.5923H40.616V7.21506H51.1682V10.05ZM65.2972 15.5239C65.7039 16.274 65.8995 17.1205 65.863 17.973V20.6101H62.6601V18.9068C62.7463 17.9905 62.5488 17.07 62.0943 16.2697C61.5285 15.7039 60.9647 15.7039 59.8331 15.7039H56.4423V20.6022H53.2395V7.21506H60.3989C61.6799 7.06468 62.9777 7.26004 64.1577 7.78085C64.6637 8.09427 65.0727 8.54219 65.3389 9.07458C65.6051 9.60698 65.718 10.2029 65.6651 10.7958C65.6941 11.5509 65.4948 12.2973 65.0932 12.9375C64.6916 13.5776 64.1063 14.0819 63.4138 14.3844C64.1456 14.5572 64.8045 14.9558 65.2972 15.5239ZM70.9492 20.4222H67.7463V7.03701H70.9511L70.9492 20.4222ZM108.066 20.4222H103.546L97.5157 10.4357V20.4222H91.11L89.9804 17.5952H83.3946L82.265 20.6101H78.6843C77.0414 20.6907 75.4279 20.1529 74.1619 19.1026C73.5403 18.4199 73.0684 17.6147 72.7764 16.7388C72.4844 15.8629 72.3789 14.9356 72.4665 14.0164C72.3587 12.1085 72.9629 10.2284 74.1619 8.74033C74.79 8.16305 75.5352 7.72798 76.3467 7.46477C77.1582 7.20156 78.0169 7.11638 78.8643 7.21506H81.8792V10.042H78.8643C77.9817 9.97201 77.1057 10.2416 76.4152 10.7958C75.741 11.6506 75.4057 12.7241 75.4735 13.8107C75.397 14.3807 75.4413 14.9605 75.6035 15.5123C75.7657 16.0641 76.0423 16.5756 76.4152 17.0136C76.7207 17.2869 77.0789 17.4947 77.4678 17.6244C77.8567 17.754 78.268 17.8026 78.6764 17.7673H79.9959L84.3264 7.41289H89.0367L94.3128 20.0364V7.41289H99.0231L104.487 16.6456V7.41289H107.69V20.4123L108.066 20.4222Z" fill="#5F6073"/>
<path d="M84.5164 14.7599H88.8488L86.7776 9.48572L84.5164 14.7599Z" fill="#5F6073"/>
<path d="M52.4858 41.8924V31.1522L47.5875 36.4283L52.4858 41.8924Z" fill="#5F6073"/>
<path d="M32.3269 32.4722V34.9114H39.2984V37.5485H32.3269V40.3755H40.0423L43.623 36.4189L40.2322 32.4623L32.3269 32.4722Z" fill="#5F6073"/>
<path d="M59.6551 32.4718H55.6985V35.8626H59.8529C60.9825 35.8626 61.7362 35.2968 61.7362 34.1672C61.6843 33.6667 61.4361 33.2073 61.046 32.8895C60.6559 32.5717 60.1557 32.4215 59.6551 32.4718Z" fill="#5F6073"/>
<path d="M117.864 35.6743V27.1953H109.951C108.542 27.109 107.146 27.5077 105.995 28.3249V27.1953H97.3278C95.9835 27.1381 94.6591 27.5361 93.569 28.3249V27.1953H78.2986V28.3249C77.0592 27.5384 75.6111 27.1447 74.1442 27.1953H63.9797V28.3249C62.6959 27.4959 61.1803 27.1 59.6551 27.1953H48.3413L45.7042 30.0223L43.2551 27.1953H26.2971V45.6587H42.8772L45.5143 42.8239L47.9634 45.6508H58.1378V41.3184H59.4573C60.9244 41.4093 62.3952 41.2172 63.7898 40.7526V45.8388H72.2687V40.9484H72.6446C73.2104 40.9484 73.2104 40.9484 73.2104 41.5142V45.8467H98.8254C100.352 45.9274 101.865 45.5327 103.158 44.7171V45.8467H111.269C112.834 45.9582 114.4 45.6322 115.791 44.905C116.744 44.3107 117.523 43.4768 118.052 42.4867C118.581 41.4966 118.841 40.385 118.806 39.2629C118.81 38.0051 118.486 36.768 117.864 35.6743ZM59.4573 38.6892H55.6985V43.2195H49.6608L45.902 38.887L41.9454 43.2195H29.5V29.8324H42.1235L45.8822 34.1649L49.8388 29.8324H59.8332C62.2823 29.8324 65.1093 30.5861 65.1093 34.1649C64.9213 37.9355 62.2843 38.6892 59.4573 38.6892ZM78.2986 37.9355C78.7283 38.6767 78.9255 39.53 78.8644 40.3846V43.0217H75.6595V41.3263C75.7632 40.4081 75.5615 39.4814 75.0858 38.6892C74.71 38.1234 73.9562 38.1234 72.8246 38.1234H69.4437V43.0217H66.2409V29.6444H73.4003C74.681 29.5109 75.9745 29.7057 77.1591 30.2102C77.6904 30.5096 78.1295 30.949 78.4284 31.4806C78.7274 32.0122 78.8747 32.6156 78.8545 33.2252C78.881 33.9801 78.6795 34.7256 78.2762 35.3643C77.8728 36.003 77.2864 36.5054 76.5933 36.8059C77.2693 36.9872 77.8679 37.3838 78.2986 37.9355ZM91.3078 32.4714H83.9506V34.9107H91.11V37.5477H83.9506V40.1848H91.3078V43.0217H80.7477V29.6444H91.3078V32.4714ZM99.221 43.0217H93.1833V40.1947H99.221C99.4551 40.2351 99.6952 40.2222 99.9236 40.1572C100.152 40.0921 100.363 39.9765 100.541 39.8188C100.782 39.565 100.917 39.2278 100.917 38.8771C100.917 38.5265 100.782 38.1893 100.541 37.9355C100.227 37.6689 99.8219 37.5342 99.4109 37.5596C96.396 37.3618 92.8173 37.5596 92.8173 33.4052C92.8173 31.5219 93.9469 29.4486 97.3397 29.4486H103.557V32.6515H97.7037C97.2543 32.6098 96.8016 32.6777 96.3841 32.8493C96.0083 33.0471 96.0083 33.4151 96.0083 33.791C96.0083 34.3567 96.3841 34.5447 96.762 34.7326C97.1169 34.8893 97.5046 34.9572 97.8916 34.9305H99.587C100.229 34.8683 100.877 34.9363 101.492 35.1304C102.108 35.3245 102.677 35.6407 103.168 36.0601C103.843 36.8406 104.182 37.8572 104.109 38.887C104.109 41.7022 102.414 43.0217 99.221 43.0217ZM115.423 41.7022C114.329 42.645 112.908 43.119 111.467 43.0217H105.429V40.1947H111.459C111.693 40.2351 111.933 40.2222 112.161 40.1572C112.39 40.0921 112.601 39.9765 112.778 39.8188C113.02 39.565 113.155 39.2278 113.155 38.8771C113.155 38.5265 113.02 38.1893 112.778 37.9355C112.464 37.6689 112.06 37.5342 111.649 37.5596C108.634 37.3618 105.055 37.5596 105.055 33.4052C105.055 31.5219 106.185 29.4486 109.577 29.4486H115.795V32.6515H110.139C109.69 32.6098 109.237 32.6777 108.82 32.8493C108.444 33.0471 108.444 33.4151 108.444 33.791C108.444 34.3567 108.642 34.5447 109.198 34.7326C109.552 34.8893 109.94 34.9572 110.327 34.9305H112.023C112.665 34.8683 113.313 34.9363 113.928 35.1304C114.543 35.3245 115.113 35.6407 115.603 36.0601C115.63 36.058 115.656 36.0617 115.681 36.0709C115.706 36.0801 115.729 36.0946 115.748 36.1134C115.767 36.1322 115.781 36.1548 115.79 36.1798C115.8 36.2047 115.803 36.2314 115.801 36.2579C116.332 37.0319 116.596 37.9575 116.555 38.895C116.566 39.4157 116.47 39.9332 116.274 40.4159C116.078 40.8985 115.786 41.3362 115.415 41.7022H115.423Z" fill="#5F6073"/>
<path d="M74.9078 32.8481C74.4246 32.6778 73.9111 32.6104 73.4004 32.6503H69.6416V35.6652H73.4004C73.9111 35.7051 74.4246 35.6377 74.9078 35.4674C75.1074 35.3144 75.2642 35.1127 75.3633 34.8817C75.4624 34.6506 75.5004 34.3979 75.4736 34.1479C75.5591 33.8997 75.5484 33.6286 75.4436 33.3879C75.3389 33.1473 75.1477 32.9547 74.9078 32.8481Z" fill="#5F6073"/>
<path d="M61.7184 10.2395C61.2352 10.0692 60.7217 10.0018 60.2109 10.0417H56.4521V13.0566H60.2109C60.7217 13.0965 61.2352 13.0291 61.7184 12.8588C61.9179 12.7058 62.0748 12.5041 62.1739 12.273C62.2729 12.0419 62.3109 11.7892 62.2842 11.5392C62.3696 11.2911 62.3589 11.0199 62.2542 10.7793C62.1494 10.5386 61.9582 10.346 61.7184 10.2395Z" fill="#5F6073"/>
<path d="M84.5164 14.7599H88.8488L86.7776 9.48572L84.5164 14.7599Z" fill="#5F6073"/>
<path d="M52.4858 41.8924V31.1522L47.5875 36.4283L52.4858 41.8924Z" fill="#5F6073"/>
<path d="M59.6551 32.4718H55.6985V35.8626H59.8529C60.9825 35.8626 61.7362 35.2968 61.7362 34.1672C61.6843 33.6667 61.4361 33.2073 61.046 32.8895C60.6559 32.5717 60.1557 32.4215 59.6551 32.4718Z" fill="#5F6073"/>
<path d="M74.9078 32.8481C74.4246 32.6778 73.9111 32.6104 73.4004 32.6503H69.6416V35.6652H73.4004C73.9111 35.7051 74.4246 35.6377 74.9078 35.4674C75.1074 35.3144 75.2642 35.1127 75.3633 34.8817C75.4624 34.6506 75.5004 34.3979 75.4736 34.1479C75.5591 33.8997 75.5484 33.6286 75.4436 33.3879C75.3389 33.1473 75.1477 32.9547 74.9078 32.8481Z" fill="#5F6073"/>
<path d="M58.3277 42.6464L55.6985 39.8194V43.0223H49.4709L45.7121 38.6898L41.5577 43.0223H29.1241V29.833H41.7476L45.7042 34.1655L47.5875 31.9062L42.8772 27.1959H26.2971V45.6593H42.8772L45.7042 42.8245L48.1533 45.6514H58.3277V42.6464Z" fill="#5F6073"/>
<path d="M38.7326 23.0411L36.2835 20.404H35.1539V19.2823L32.3269 16.4553L30.4436 20.4119H27.8045L23.2821 10.0496V20.4119H16.8764L15.5589 17.5869H9.15118L7.82375 20.4119H4.44086L10.0948 7.21473H14.8052L20.0892 19.8481V7.21473H22.9162L20.2672 4.58557H17.4422V6.84677L16.5005 4.58557H8.21941L4.46065 13.4404L0.108398 23.0411H9.90491L11.0345 20.2141H13.6736L14.9931 23.0411H25.5433V20.7898L26.485 23.051H31.9589L32.9006 20.7898V23.0411H38.7326Z" fill="#5F6073"/>
<path d="M30.0657 14.3844L27.0508 11.3695L29.312 16.2678L30.0657 14.3844Z" fill="#5F6073"/>
<path d="M115.791 44.7179C116.64 44.1469 117.35 43.3942 117.872 42.5145C118.393 41.6348 118.712 40.65 118.806 39.6317L116.169 36.9946C116.402 37.5959 116.529 38.2332 116.545 38.878C116.56 39.4013 116.467 39.9222 116.273 40.4084C116.078 40.8946 115.787 41.3358 115.415 41.7049C114.321 42.6478 112.9 43.1218 111.459 43.0245H105.429V40.1955H111.459C111.693 40.2359 111.933 40.2231 112.161 40.158C112.39 40.0929 112.601 39.9773 112.778 39.8196C113.02 39.5658 113.155 39.2286 113.155 38.878C113.155 38.5273 113.02 38.1901 112.778 37.9363C112.464 37.6697 112.06 37.535 111.649 37.5604C108.634 37.3626 105.055 37.5604 105.055 33.406C105.055 31.5227 106.185 29.8253 109.012 29.4494L106.936 27.394C106.56 27.5918 106.371 27.7698 106.183 27.7698V26.6402H97.5157C96.1713 26.583 94.847 26.981 93.7569 27.7698V26.6402H78.3064V27.7698C77.0671 26.9833 75.619 26.5896 74.152 26.6402H63.9796V27.7698C62.6937 26.9392 61.175 26.5432 59.6472 26.6402H48.3412L45.7041 29.4672L43.255 26.6303H41.1818L46.8338 32.2823L49.6607 29.2674H59.6551C62.1042 29.2674 64.9312 30.0211 64.9312 33.5999C64.9312 37.3586 62.2941 38.1223 59.4671 38.1223H55.6985V40.9492L58.5255 43.7762V40.9492H59.4573C60.9243 41.0402 62.3952 40.8481 63.7897 40.3834V45.4696H72.2687V40.5734H72.6446C73.2104 40.5734 73.2104 40.5734 73.2104 41.1392V45.4716H98.8253C100.352 45.5523 101.865 45.1577 103.158 44.342V45.4716H111.269C112.818 45.7002 114.4 45.4366 115.791 44.7179ZM78.2985 37.9363C78.7283 38.6775 78.9254 39.5308 78.8643 40.3854V43.0225H75.6595V41.3271C75.7631 40.4089 75.5615 39.4822 75.0858 38.69C74.7099 38.1242 73.9562 38.1242 72.8246 38.1242H69.4437V43.0225H66.2408V29.6453H73.4003C74.6809 29.5118 75.9744 29.7065 77.159 30.2111C77.6904 30.5104 78.1294 30.9498 78.4284 31.4814C78.7273 32.013 78.8747 32.6164 78.8544 33.226C78.881 33.9809 78.6795 34.7264 78.2761 35.3651C77.8728 36.0038 77.2863 36.5062 76.5932 36.8067C77.2693 36.9881 77.8678 37.3846 78.2985 37.9363ZM91.3078 32.4722H83.9505V34.9115H91.11V37.5486H83.9505V40.1856H91.3078V43.0225H80.7477V29.6453H91.3078V32.4722ZM99.221 43.0225H93.1832V40.1955H99.221C99.455 40.2359 99.6952 40.2231 99.9236 40.158C100.152 40.0929 100.363 39.9773 100.54 39.8196C100.782 39.5658 100.917 39.2286 100.917 38.878C100.917 38.5273 100.782 38.1901 100.54 37.9363C100.227 37.6697 99.8219 37.535 99.4109 37.5604C96.396 37.3626 92.8172 37.5604 92.8172 33.406C92.8172 31.5227 93.9468 29.4494 97.3396 29.4494H103.557V32.6523H97.7036C97.2543 32.6107 96.8015 32.6785 96.3841 32.8501C96.0082 33.0479 96.0082 33.4159 96.0082 33.7918C96.0082 34.3576 96.3841 34.5455 96.7619 34.7334C97.1168 34.8901 97.5046 34.958 97.8916 34.9313H99.587C100.229 34.8691 100.877 34.9371 101.492 35.1312C102.108 35.3253 102.677 35.6415 103.168 36.0609C103.843 36.8414 104.182 37.858 104.109 38.8879C104.109 41.703 102.414 43.0225 99.221 43.0225Z" fill="#5F6073"/>
<path d="M108.256 33.79C108.256 34.3558 108.454 34.5437 109.01 34.7316C109.364 34.8883 109.752 34.9562 110.139 34.9295H111.835C112.747 34.8951 113.654 35.0896 114.472 35.4953L111.645 32.6683H109.949C109.5 32.6267 109.047 32.6945 108.63 32.8661C108.399 33.1197 108.266 33.4473 108.256 33.79Z" fill="#5F6073"/>
<path d="M101.66 22.4857L102.036 23.0515H102.234L101.66 22.4857Z" fill="#5F6073"/>
<path d="M91.3077 12.1238L94.5106 19.8391V15.3266L91.3077 12.1238Z" fill="#5F6073"/>
<path d="M59.0815 18.3411H59.4573C59.8332 18.3411 59.8332 18.3411 59.8332 18.9069V23.0613H73.3984V21.9317C74.9825 22.6998 76.7243 23.0867 78.4846 23.0613H84.1366L85.2662 20.0464H87.9032L89.0328 23.0613H99.9609V21.178L97.3239 18.5409V20.6142H90.9122L89.9706 17.5993H83.3947L82.2651 20.6142H78.6844C77.0415 20.6948 75.428 20.157 74.162 19.1067C73.5404 18.424 73.0685 17.6188 72.7765 16.7429C72.4845 15.867 72.379 14.9397 72.4666 14.0205C72.3588 12.1126 72.9629 10.2325 74.162 8.74443C74.7898 8.16645 75.5349 7.73066 76.3464 7.46676C77.1579 7.20286 78.0167 7.11705 78.8644 7.21521H81.8793V10.0422H78.8644C77.9818 9.97216 77.1058 10.2418 76.4153 10.7959C75.7411 11.6508 75.4058 12.7242 75.4736 13.8108C75.3971 14.3809 75.4414 14.9607 75.6036 15.5125C75.7659 16.0643 76.0424 16.5758 76.4153 17.0137C76.7208 17.287 77.079 17.4949 77.4679 17.6245C77.8568 17.7541 78.2681 17.8028 78.6765 17.7674H79.996L84.3265 7.41304H86.2098L83.5727 4.77597H78.6745C76.851 4.72776 75.0423 5.115 73.3984 5.90558V4.77597H65.1093V5.90558C64.088 5.11542 62.8185 4.71495 61.5286 4.77597H31.1954L29.1222 9.48629L27.0489 4.77597H18.7618L21.3989 7.41304H25.1577L28.3605 14.3845L29.4901 15.5142L32.8809 7.2251H38.157V20.6023H34.9641V10.24L31.7612 17.7753L37.2253 23.2394H58.8915L59.0815 18.3411ZM67.7464 7.21521H70.9512V20.5924H67.7464V7.21521ZM51.1683 10.0501H43.8288V12.4992H50.9883V15.1284H43.8288V17.7655H51.1683V20.5924H40.6161V7.21521H51.1683V10.0501ZM56.4444 20.4124H53.2396V7.03716H60.399C61.68 6.88677 62.9778 7.08214 64.1578 7.60295C64.6638 7.91637 65.0728 8.36429 65.339 8.89668C65.6052 9.42908 65.7181 10.025 65.6652 10.6179C65.6922 11.3714 65.4919 12.1156 65.0905 12.7538C64.689 13.392 64.1048 13.8947 63.4139 14.1966C64.0461 14.3589 64.5881 14.7651 64.9214 15.3262C65.3282 16.0763 65.5237 16.9228 65.4872 17.7753V20.4124H62.2843V18.717C62.3705 17.8008 62.173 16.8802 61.7185 16.0799C61.5207 15.7041 60.9648 15.7041 59.8352 15.7041H56.4424V20.4144L56.4444 20.4124Z" fill="#5F6073"/>
</g>
<defs>
<clipPath id="clip0_5_876">
<rect width="118.698" height="49.4574" fill="white" transform="translate(0.108398 0.489014)"/>
</clipPath>
</defs>
</svg>
