<svg width="49" height="38" viewBox="0 0 49 38" fill="none" xmlns="http://www.w3.org/2000/svg">
<path fill-rule="evenodd" clip-rule="evenodd" d="M7.35325 0.0973129C6.97465 0.283994 6.94316 0.431363 6.81815 2.60055C6.60775 6.25182 6.30487 12.2261 6.23757 14.0528L6.21687 14.6156L5.865 14.8124C4.78676 15.4156 4.04558 16.3028 3.82803 17.251C3.70942 17.7681 3.7401 18.3443 3.89652 18.5372C4.14736 18.8465 4.54725 18.8746 4.84521 18.6038C5.04891 18.4187 5.06284 18.3719 5.06284 17.8728C5.06284 17.2371 5.24577 16.8401 5.77178 16.334L6.10519 16.0132L6.10511 16.477C6.10504 16.7321 6.06863 17.6716 6.02418 18.5648C5.93394 20.3789 5.98807 21.0579 6.3013 22.0403C6.92306 23.9901 8.48003 25.6967 10.5317 26.6774C10.8165 26.8136 11.0947 26.9092 11.1499 26.89C11.2051 26.8707 11.2332 26.8799 11.2125 26.9105C11.1683 26.9754 11.8904 27.2129 12.5826 27.3612C13.2925 27.5133 15.4417 27.6114 16.1373 27.5235C18.742 27.1942 21.4251 25.332 22.647 23.0055C23.0244 22.2868 23.0788 21.9948 22.8676 21.8211C22.6061 21.606 22.3853 21.72 22.0655 22.2353C21.9094 22.4866 21.7921 22.7226 21.8045 22.7598C21.817 22.7971 21.803 22.8054 21.7733 22.7784C21.7435 22.7514 21.6142 22.8635 21.4859 23.0275C20.8545 23.8347 19.6351 24.8016 18.5613 25.3467C17.0681 26.1047 15.9566 26.2899 13.9562 26.1138C11.4109 25.8898 9.39171 24.6321 8.24565 22.5569C7.67765 21.5283 7.59016 20.5228 7.7658 17.0385C7.88485 14.6757 7.87338 14.7253 8.44213 14.1017C9.03478 13.4519 9.77321 12.9214 10.6096 12.5448C10.9372 12.3973 11.2388 12.2689 11.2797 12.2596C11.3207 12.2504 11.5887 12.1798 11.8753 12.1029C13.2211 11.7417 15.1337 11.6564 16.2353 11.9085C17.6808 12.2393 18.9261 12.9296 20.2484 14.1329C20.5552 14.412 20.8404 14.6302 20.8824 14.6178C20.9243 14.6054 20.9345 14.6172 20.9051 14.644C20.8313 14.7109 21.1389 15.0915 21.2268 15.0421C21.2656 15.0203 21.2926 15.0275 21.2867 15.0582C21.2638 15.1784 21.299 15.2629 21.4245 15.3888C21.4964 15.461 21.7043 15.7295 21.8864 15.9856C22.0685 16.2417 22.2633 16.4929 22.3193 16.5438C22.3753 16.5947 22.3979 16.6364 22.3695 16.6364C22.341 16.6364 22.3516 16.6745 22.3929 16.721C22.4341 16.7675 22.61 17.0491 22.7837 17.3468C23.4272 18.4494 24.6079 20.2159 24.7962 20.3578C24.8209 20.3764 24.8635 20.4469 24.891 20.5143C24.9199 20.5854 24.9773 20.6166 25.0273 20.5885C25.0816 20.558 25.0937 20.5695 25.0599 20.6193C25.0089 20.6943 25.4286 21.2293 26.055 21.8873C26.2003 22.0401 26.4349 22.2989 26.5762 22.4625C26.9446 22.8887 28.5133 24.2921 29.0043 24.6346C30.3107 25.5459 31.4857 26.1434 32.5511 26.4382C35.3781 27.2205 38.4547 26.7988 40.7633 25.3124C41.7109 24.7024 43.1114 23.368 42.9906 23.1904C42.9588 23.1436 42.9687 23.1291 43.0151 23.1551C43.1972 23.2574 44.0154 21.7943 44.3295 20.8047C44.6239 19.8771 44.6967 19.1913 44.6527 17.7605L44.6133 16.4825L44.9718 16.847C45.4027 17.2853 45.5646 17.6941 45.568 18.3526C45.571 18.9341 45.7088 19.1344 46.1415 19.186C46.3831 19.2148 46.4524 19.1901 46.6441 19.007C46.8523 18.8081 46.8663 18.7613 46.8632 18.2737C46.8595 17.6938 46.6535 16.9411 46.5191 17.0166C46.4694 17.0445 46.4567 17.0327 46.4877 16.9872C46.6728 16.715 45.4544 15.5367 44.52 15.0841C44.1656 14.9124 44.0707 14.8285 43.9969 14.622C43.8483 14.2056 43.3357 13.3139 42.9961 12.8811C42.6095 12.3885 41.8152 11.666 41.21 11.2566C40.7328 10.9337 39.8317 10.5081 39.1625 10.2893C37.5245 9.75383 34.7973 9.62108 33.3179 10.0047C32.5918 10.1931 32.009 10.4154 32.0568 10.4859C32.079 10.5186 32.0465 10.5276 31.9845 10.5059C31.8706 10.4662 30.6729 11.055 30.403 11.2835C30.3236 11.3509 30.2134 11.4195 30.1583 11.4363C29.8949 11.516 28.0789 13.1761 28.0754 13.3403C28.0748 13.3695 28.0249 13.4383 27.9644 13.4933C27.5072 13.9088 26.3565 16.1305 26.3565 16.5978C26.3565 16.743 26.6548 16.9747 26.8415 16.9747C27.1065 16.9747 27.5451 16.3988 27.4251 16.2084C27.3975 16.1647 27.4022 16.1513 27.4356 16.1787C27.4689 16.2061 27.6553 15.9706 27.8498 15.6552C28.9444 13.8806 30.304 12.6951 32.2011 11.8609C33.5081 11.2862 33.9734 11.1916 35.4771 11.1952C36.8484 11.1984 37.3322 11.2589 38.418 11.5631C39.4251 11.8451 40.2616 12.2957 40.9905 12.9488C42.2118 14.0431 42.8343 15.4133 43.0366 17.4528C43.1876 18.9749 42.9599 20.2201 42.3021 21.4684C41.9003 22.2309 41.2603 22.9991 40.5363 23.5876C40.2772 23.7982 40.0851 23.9996 40.1094 24.0354C40.1336 24.071 40.115 24.0786 40.0681 24.0523C40.0212 24.0259 39.8401 24.0928 39.6657 24.201C39.1374 24.5287 38.1217 24.932 37.4129 25.0956C36.6093 25.2809 35.1505 25.3479 34.2678 25.2399C33.1469 25.1029 31.5437 24.5298 30.8162 24.0062C30.6541 23.8895 30.4905 23.8205 30.4413 23.8482C30.3895 23.8773 30.3739 23.868 30.4029 23.8253C30.4298 23.7857 30.2426 23.6031 29.9863 23.4187C29.343 22.956 28.4407 22.1396 27.7059 21.3556C27.3623 20.9889 27.0523 20.7155 27.0083 20.7403C26.9612 20.7666 26.951 20.7526 26.9831 20.7054C27.0137 20.6603 26.9302 20.504 26.7899 20.3437C26.0779 19.5304 25.1811 18.2461 24.4371 16.9747C23.5126 15.3948 22.438 14.0256 21.3523 13.0441C21.0165 12.7406 20.556 12.3666 20.329 12.213C20.1021 12.0595 19.8753 11.8988 19.8253 11.8559C19.6262 11.6856 19.2074 11.487 19.134 11.5281C19.0914 11.5522 19.0656 11.5316 19.0768 11.4825C19.1156 11.3138 17.4045 10.6339 16.4351 10.4328C15.6206 10.2639 13.7682 10.2828 12.6303 10.4717C11.6304 10.6376 10.5571 10.9432 10.6248 11.0427C10.6502 11.0801 10.6315 11.0875 10.5819 11.0596C10.4129 10.9647 9.14252 11.6143 8.43007 12.1598C8.21408 12.3253 8.02482 12.4486 8.00949 12.434C7.99415 12.4195 8.0109 11.7681 8.04678 10.9866C8.19242 7.80867 8.34668 3.78248 8.38458 2.16778C8.42895 0.278445 8.43633 0.313697 7.95178 0.0860128C7.70214 -0.0313139 7.61064 -0.0296219 7.35325 0.0973129ZM29.558 12.0609C29.558 12.0749 29.4994 12.1282 29.4277 12.1793C29.3097 12.2634 29.3071 12.2611 29.3996 12.1538C29.4969 12.041 29.558 12.0052 29.558 12.0609ZM8.6777 31.3811C8.65246 31.4182 8.59104 31.4355 8.54116 31.4196C8.42702 31.3831 8.24037 31.5114 8.12757 31.7037C7.92505 32.0494 8.10649 32.4601 8.52574 32.605C9.00835 32.7718 9.62163 32.2852 9.48285 31.8457C9.38829 31.5461 8.79742 31.2051 8.6777 31.3811ZM29.2974 31.3682C29.2155 31.3857 29.0564 31.4788 28.9438 31.5752C28.5622 31.9018 28.7084 32.4269 29.2311 32.6076C29.4317 32.6769 29.8046 32.6259 29.7445 32.5375C29.7247 32.5084 29.7657 32.4889 29.8356 32.494C29.9109 32.4995 30.0223 32.4038 30.1088 32.2592C30.2385 32.0428 30.2438 31.9906 30.1557 31.7972C30.0126 31.4834 29.6372 31.2957 29.2974 31.3682ZM36.6683 31.3773C36.2956 31.4857 36.1099 31.7092 36.1099 32.0498C36.1099 32.2773 36.3904 32.5691 36.6705 32.633C37.1524 32.7429 37.6999 32.237 37.5478 31.8224C37.4337 31.5111 36.9866 31.2849 36.6683 31.3773ZM5.73292 34.7051V37.6851L6.30993 37.6653L6.88695 37.6456L6.90638 34.6854L6.92574 31.7251H6.32936H5.73292V34.7051ZM20.0414 32.774C20.0545 33.3508 20.0459 33.8228 20.0223 33.8227C19.9988 33.8227 19.8983 33.7436 19.799 33.6469C19.4586 33.3155 19.0786 33.1872 18.4272 33.184C17.9723 33.1817 17.7525 33.2146 17.4966 33.3235C15.7468 34.0677 15.7376 36.7286 17.4819 37.5373C18.2149 37.8771 19.2338 37.7557 19.7448 37.2676L20.0199 37.0048L20.0426 37.3252L20.0652 37.6456H20.6608H21.2565L21.2759 34.6854L21.2953 31.7251H20.6564H20.0175L20.0414 32.774ZM0 34.8714V37.6794H1.43621C3.12474 37.6794 3.57526 37.6025 4.07752 37.2285C4.41613 36.9763 4.52238 36.8079 4.61612 36.3747C4.6826 36.0672 4.56549 35.4928 4.44956 35.558C4.40042 35.5855 4.39164 35.5707 4.42663 35.5192C4.50458 35.4045 4.12859 35.053 3.76816 34.9034L3.47854 34.7832L3.70123 34.6785C4.03382 34.5222 4.35449 34.1547 4.46162 33.8071C4.59959 33.3592 4.42559 32.8439 4.02555 32.5154C3.55701 32.1308 3.17723 32.0634 1.47552 32.0634H0V34.8714ZM23.0443 34.5137C23.5881 35.8641 24.0961 37.1212 24.1732 37.3073L24.3134 37.6456L25.0398 37.665L25.7662 37.6844L25.8676 37.462C25.9234 37.3397 26.395 36.1739 26.9158 34.8714C27.4365 33.5689 27.9073 32.4043 27.9619 32.2833L28.0614 32.0634H27.4042H26.7469L26.6706 32.3172C26.6286 32.4568 26.3722 33.1494 26.1007 33.8565C25.8293 34.5636 25.6042 35.1573 25.6006 35.1759C25.5971 35.1945 25.5621 35.2859 25.523 35.3789C25.4839 35.4719 25.3708 35.7586 25.2717 36.0158C25.1126 36.4286 25.0164 36.6185 25.0164 36.5196C25.0164 36.4572 23.7509 33.1334 23.6975 33.0558C23.6677 33.0124 23.6347 32.9269 23.6242 32.8658C23.6137 32.8048 23.5448 32.6069 23.471 32.426L23.3369 32.0973L22.6962 32.0778L22.0555 32.0584L23.0443 34.5137ZM3.00256 33.0813C3.35882 33.336 3.35383 33.9992 2.99415 34.214C2.85246 34.2986 2.58145 34.3393 1.99535 34.364L1.19096 34.3978L1.19111 33.6704L1.19126 32.943H2.00019C2.70214 32.943 2.83474 32.9613 3.00256 33.0813ZM10.6468 35.3789V37.6118H11.2425H11.8381V36.1875C11.8381 34.6579 11.8587 34.5579 12.2408 34.2336C12.5083 34.0065 13.2841 33.9878 13.6009 34.2009C13.9997 34.4692 14.0325 34.6109 14.0572 36.1739L14.0799 37.6118H14.6762H15.2726L15.2491 35.9709C15.2272 34.4341 15.2154 34.3126 15.0626 34.0531C14.8684 33.7233 14.466 33.3875 14.0971 33.2474C13.7515 33.1162 12.9512 33.1173 12.6029 33.2496C12.4528 33.3066 12.2194 33.4299 12.0841 33.5237L11.8381 33.6942V33.4201V33.146H11.2425H10.6468V35.3789ZM32.4613 33.2092C31.9832 33.3414 31.553 33.6529 31.3472 34.0159C31.2123 34.2537 31.2285 34.7394 31.3798 34.9897C31.515 35.2135 31.8685 35.5125 32.035 35.5439C32.0854 35.5533 32.2114 35.5929 32.315 35.6318C32.4186 35.6707 32.7816 35.7707 33.1217 35.8542C34 36.0695 34.2747 36.4087 33.8291 36.7272C33.4259 37.0154 32.5577 36.8351 32.3873 36.4277C32.3199 36.2666 32.2878 36.2585 31.719 36.2585C31.232 36.2585 31.1216 36.2777 31.1216 36.3622C31.1216 36.7744 31.8416 37.4612 32.4392 37.6189C32.6359 37.6708 33.048 37.7106 33.3552 37.7074C34.0596 37.6999 34.5432 37.5038 34.8966 37.0821C35.1061 36.8322 35.142 36.7342 35.142 36.4135C35.142 35.656 34.732 35.3492 33.256 35.0019C32.6613 34.8619 32.3873 34.6912 32.3873 34.4605C32.3873 34.1847 32.6336 34.0256 33.0611 34.0256C33.5181 34.0256 33.8582 34.1734 33.9206 34.399C33.965 34.5601 33.9909 34.5669 34.5559 34.5669H35.1449L35.0957 34.3809C34.9411 33.7964 34.5472 33.4178 33.9216 33.2525C33.5018 33.1416 32.7829 33.1203 32.4613 33.2092ZM40.1304 33.2372C39.9871 33.2885 39.7861 33.3617 39.6837 33.3999C39.3042 33.5416 38.818 34.0107 38.6009 34.4446C38.4253 34.7956 38.3878 34.9616 38.3898 35.3789C38.3927 36.0013 38.4912 36.3276 38.8074 36.7623C39.8557 38.2035 42.3374 38.0003 43.1939 36.403C43.4317 35.9596 43.4415 34.9459 43.2124 34.4958C43.0279 34.1334 42.602 33.6712 42.5036 33.7264C42.4657 33.7477 42.444 33.7248 42.4552 33.6754C42.4669 33.6245 42.2867 33.5 42.0382 33.3872C41.6847 33.2267 41.4847 33.1843 40.9959 33.1663C40.6034 33.1518 40.2995 33.1767 40.1304 33.2372ZM44.3743 35.3761V37.6118H44.966H45.5576L45.5802 36.0937L45.6028 34.5755L45.8226 34.3672C46.2685 33.9445 47.0763 33.9317 47.5124 34.3404L47.7619 34.5743L47.7867 36.093L47.8115 37.6118H48.4058H49L48.9765 35.9709C48.9544 34.4123 48.9446 34.3156 48.7828 34.0402C48.6806 33.8662 48.5792 33.7689 48.5293 33.7969C48.4833 33.8227 48.4668 33.8133 48.4924 33.7757C48.5178 33.7384 48.4678 33.6389 48.3814 33.5546C47.8097 32.9969 46.3803 33.0084 45.7561 33.5757L45.5733 33.7417L45.5509 33.4608L45.5283 33.1799L44.9513 33.1601L44.3743 33.1404V35.3761ZM8.18988 35.4494V37.6851L8.7669 37.6653L9.34391 37.6456L9.36357 35.4296L9.38315 33.2137H8.78655H8.18988V35.4494ZM28.888 35.4466V37.6851L29.465 37.6653L30.042 37.6456V35.4466V33.2475L29.465 33.2278L28.888 33.208V35.4466ZM36.2589 35.4466V37.6794H36.8545H37.4501V35.4466V33.2137H36.8545H36.2589V35.4466ZM19.4694 34.2962C19.8635 34.5176 20.0498 34.9411 20.0165 35.54C19.9935 35.9545 19.9555 36.0742 19.7813 36.2818C19.667 36.4179 19.4664 36.5807 19.3354 36.6434C19.0178 36.7958 18.3952 36.7951 18.1386 36.6424C18.0288 36.577 17.9014 36.5447 17.8552 36.5706C17.8059 36.5983 17.7919 36.5875 17.8213 36.5443C17.8488 36.5039 17.8337 36.4498 17.7878 36.424C17.6142 36.3264 17.4254 35.8138 17.4279 35.4466C17.4324 34.7881 17.7901 34.2834 18.3546 34.1392C18.6237 34.0704 19.216 34.1539 19.4694 34.2962ZM41.4734 34.2455C41.9248 34.4524 42.1407 34.8387 42.1407 35.4395C42.1407 35.9351 41.9592 36.3498 41.6548 36.5498C41.5526 36.617 41.2883 36.7064 41.0676 36.7485C40.6978 36.819 40.6387 36.812 40.3158 36.6602C39.8322 36.4327 39.6087 36.0483 39.6109 35.4476C39.6133 34.7831 39.9022 34.3218 40.4282 34.1422C40.6853 34.0543 41.1584 34.1012 41.4734 34.2455ZM3.15683 35.4276C3.38235 35.6063 3.45874 35.8395 3.39992 36.1691C3.31192 36.6618 2.97762 36.7988 1.86134 36.7995L1.15403 36.8001L1.17659 36.0049L1.19907 35.2097L2.08321 35.2436C2.85931 35.2733 2.99042 35.2957 3.15683 35.4276Z" fill="#252B2B"/>
</svg>
