<svg width="533" height="354" viewBox="0 0 533 354" fill="none" xmlns="http://www.w3.org/2000/svg">
<path fill-rule="evenodd" clip-rule="evenodd" d="M525.083 0.66161C526.461 2.08276 529.848 13.7641 531.333 22.2145C535.85 47.926 531.13 71.8434 517.87 90.4297C509.56 102.078 497.723 111.961 485.799 117.205C466.795 125.563 441.405 127.965 422.491 123.195L421.569 122.962L421.398 146.97C421.238 169.576 421.174 171.262 420.296 175.831C418.537 184.985 415.735 193.223 411.208 202.547L409.074 206.942L410.208 213.416C412.636 227.262 414.714 233.752 418.667 239.825C420.11 242.043 425.099 248.508 429.754 254.194C438.969 265.449 442.233 269.921 443.503 273.026C445.004 276.7 451.554 303.722 454.004 316.354C455 321.483 455.174 323.46 455.188 329.747C455.201 335.537 455.045 337.698 454.461 339.801C453.391 343.658 451.456 347.11 449.161 349.257C445.179 352.98 440.709 354.012 428.627 354C419.284 353.99 418.201 353.742 415.491 350.991C412.892 348.353 412.353 344.822 413.865 340.342C415.558 335.325 420.332 331.063 425.825 329.665C428.758 328.918 428.707 329.149 427.434 322.313C424.741 307.859 417.616 288.497 413.368 284.089C412.829 283.53 408.285 280.742 403.271 277.894C398.256 275.046 391.72 271.271 388.746 269.505C385.772 267.739 383.339 266.437 383.339 266.611C383.339 266.786 384.802 270.581 386.591 275.046C389.549 282.431 389.86 283.48 390.029 286.658C390.198 289.819 390.083 290.521 388.821 294.034C386.187 301.361 378.189 314.719 366.328 331.602C357.336 344.401 352.205 349.79 346.589 352.33L343.308 353.814L331.849 353.687C319.474 353.549 318.56 353.414 316.176 351.368C314.569 349.989 312.952 346.801 312.947 345.002C312.931 339.598 316.256 334.122 321.351 331.161C324.365 329.409 327.31 328.776 332.447 328.776H336.954L339.976 322.274C347.757 305.533 351.604 295.405 351.604 291.665C351.604 287.815 347.4 281.979 330.104 261.814C325.159 256.05 319.481 249.062 317.486 246.287C309.622 235.346 304.243 224.077 301.803 213.435L300.856 209.308L278.804 218.617C266.676 223.736 256.689 227.981 256.611 228.048C256.533 228.116 257.256 229.363 258.215 230.821C259.175 232.277 260.468 234.869 261.087 236.578C262.125 239.442 262.216 240.209 262.234 246.287C262.247 250.766 262.011 254.32 261.498 257.35C259.67 268.16 255.669 284.233 252.514 293.447C250.846 298.316 250.816 299.983 252.368 301.788C253.826 303.485 254.771 303.71 261.417 303.944C267.18 304.146 267.98 304.262 269.916 305.18C272.511 306.409 275.381 309.175 276.606 311.628C277.852 314.123 277.914 320.589 276.722 323.726C275.601 326.677 272.064 329.895 268.664 331.06C261.062 333.663 249.146 332.5 240.234 328.284C235.712 326.145 230.257 321.234 228.062 317.325C226.446 314.446 225.038 310.824 224.29 307.62C224.041 306.553 223.674 299.74 223.475 292.481C223.006 275.374 222.129 270.645 218.489 265.598C217.163 263.76 216.253 262.826 216.253 263.303C216.253 263.4 210.556 280.399 203.594 301.077C195.226 325.928 190.414 339.617 189.402 341.453C186.283 347.108 181.284 351.252 175.667 352.84C173.235 353.528 171.726 353.62 162.909 353.62C151.612 353.62 150.515 353.397 147.962 350.577C145.974 348.38 145.249 345.605 145.836 342.433C146.843 336.995 150.183 332.845 155.48 330.448C158.33 329.159 159.105 328.985 162.638 328.844L166.601 328.685L167.458 326.305C169.229 321.391 171.69 309.332 174.451 292.046C176.284 280.566 180.207 252.963 180.207 251.543C180.207 250.726 179.87 250.361 178.617 249.82C174.501 248.041 163.001 241.263 155.63 236.27C152.034 233.834 151.575 233.625 151.177 234.241C149.91 236.202 149.369 236.469 144.423 237.573C139.981 238.565 139.254 238.635 138.073 238.183C136.395 237.541 135.804 236.887 134.87 234.634L134.124 232.836L132.851 233.816C132.152 234.355 131.125 235.58 130.569 236.539L129.558 238.282L130.577 241.702C131.574 245.051 131.602 245.567 131.899 266.666C132.358 299.189 132.918 302.754 139.31 313.838C142.391 319.183 143.312 321.959 143.312 325.906C143.312 332.231 140.432 336.75 134.689 339.434C131.485 340.932 131.276 340.974 126.194 341.129C121.881 341.26 120.368 341.145 117.411 340.462C108.32 338.361 100.412 333.115 95.1859 325.72C91.2484 320.149 89.4549 315.023 89.4549 309.342V306.567L84.0145 311.363C73.5012 320.633 64.1635 327.258 56.8647 330.629L52.0515 332.852L46.0508 332.81C41.2317 332.775 39.0163 332.56 34.7993 331.717C24.9539 329.748 15.2066 326.845 9.3374 324.133C7.38281 323.23 6.55035 322.592 6.12543 321.672C5.80994 320.989 4.78619 319.75 3.84979 318.919C1.67175 316.986 0.331299 314.127 0.0722046 310.863C-0.124573 308.382 -0.0499878 308.129 2.02039 304.264C4.93164 298.828 6.56647 296.163 12.6795 286.884C23.3085 270.751 26.227 263.569 30.0725 244.081C30.7629 240.582 31.7171 236.566 32.1929 235.156C34.8557 227.264 39.0171 221.893 45.8973 217.466C50.0066 214.821 51.5668 212.976 54.6757 207.08C56.0268 204.518 58.603 199.627 60.4007 196.211L63.669 190L68.1939 185.924C70.6824 183.682 74.647 180.538 77.0049 178.936L81.291 176.025L81.2559 174.278C81.2257 172.787 81.6108 171.948 83.8835 168.551C85.3482 166.362 86.902 164.397 87.3367 164.184C88.4969 163.616 90.8671 163.712 91.8123 164.367C92.2648 164.681 92.7631 164.943 92.9188 164.949C93.336 164.967 101.483 154.795 109.397 144.375C119.491 131.084 123.048 126.845 128.15 122.022C140.319 110.518 153.527 105.703 180.194 103.051C190.116 102.064 192.935 101.334 215.405 93.9273C240.123 85.7793 249.564 83.0115 263.659 79.7802C290.269 73.6799 313.635 71.3578 342.628 71.9319C364.12 72.3577 374.32 74.0157 394.577 80.3753C422.772 89.2275 444.949 93.5791 459.036 93.0236C481.851 92.1238 498.943 81.713 509.501 62.2862C517.365 47.8166 520.973 32.352 521.459 11.0456C521.591 5.21426 521.868 0.747788 522.114 0.467517C522.728 -0.232771 524.317 -0.128737 525.083 0.66161ZM525.021 23.7673C523.688 38.537 519.399 53.1079 513.055 64.4212C509.226 71.2479 505.419 76.1161 500.108 80.9762C491.341 89.0001 480.666 93.9852 467.841 96.0453C451.363 98.6923 430.304 95.3256 394.153 84.265C375.497 78.5571 367.86 77.0435 352.594 76.0284C344.021 75.4586 317.972 75.8048 308.278 76.6177C279.532 79.0279 257.806 83.9839 217.102 97.4152C193.292 105.272 191.025 105.841 178.511 107.108C157.217 109.263 144.937 113.264 134.716 121.374C129.248 125.713 124.236 131.451 113.426 145.746C110.197 150.016 105.194 156.454 102.308 160.051C99.4211 163.649 97.0183 166.729 96.9678 166.897C96.9174 167.064 99.5479 169.02 102.813 171.242C117.5 181.241 128.43 191.486 137.171 203.449C140.941 208.608 146.249 218.176 148.554 223.966L150.177 228.042L155.502 231.536C179.115 247.028 191.498 252.727 209.044 256.176C214.192 257.188 217.057 258.483 219.811 261.046C223.387 264.371 225.75 269.699 226.868 276.953C227.131 278.661 227.5 285.823 227.687 292.869C228.069 307.203 228.412 309.257 231.348 314.736C233.177 318.15 237.36 322.372 240.819 324.295C246.04 327.199 255.568 329.156 261.763 328.597C267.02 328.123 270.472 326.489 272.263 323.627C273.172 322.173 273.292 321.511 273.292 317.907C273.292 314.15 273.199 313.687 272.114 311.998C271.351 310.809 270.232 309.785 268.933 309.086C267.064 308.081 266.519 307.994 260.781 307.789C253.838 307.541 251.663 306.944 249.62 304.721C246.642 301.482 246.389 298.334 248.603 292.089C250.583 286.506 253.203 276.921 255.069 268.435C259.146 249.897 259.252 241.205 255.487 234.201C253.533 230.565 250.824 228.084 241.634 221.516C223.463 208.53 213.407 199.119 208.361 190.379C206.725 187.547 206.725 187.545 207.556 186.703C208.16 186.092 208.736 185.908 209.653 186.031C210.576 186.155 213.552 185.184 220.688 182.431C248.215 171.811 270.037 162.199 283.978 154.553C292.126 150.085 294.664 148.916 299.345 147.481C305.062 145.728 310.862 144.752 317.064 144.5C325.183 144.17 325.627 144.776 321.194 150.148C315.988 156.458 311.076 166.837 308.306 177.384C305.996 186.179 305.186 192.517 305.154 202.033C305.126 210.4 305.152 210.664 306.438 215.038C309.619 225.857 314.518 235.452 322.293 246.093C323.618 247.907 328.383 253.672 332.88 258.903C347.233 275.595 351.315 280.834 353.995 286C356.524 290.875 356.289 293.774 352.565 303.565C348.866 313.293 340.515 331.381 339.358 332.173C338.879 332.501 336.917 332.658 333.293 332.658C326.82 332.658 324.848 333.174 321.827 335.66C319.089 337.914 317.55 340.659 317.312 343.714C317.166 345.584 317.3 346.298 317.984 347.291C319.776 349.891 319.997 349.932 332.007 349.932C342.624 349.932 342.881 349.914 344.936 348.988C349.289 347.027 354.85 340.976 363.012 329.319C376.46 310.112 383.878 297.289 385.699 290.101C386.531 286.821 386.004 284.583 382.151 275.012C377.931 264.529 375.059 253.422 374.8 246.58C374.726 244.612 374.8 244.471 377.031 242.31C380.175 239.266 384.693 234.259 388.507 229.595C404.833 209.625 414.635 189.106 416.826 170.314C417.078 168.145 417.265 156.58 417.265 143.072C417.265 115.401 416.798 117.596 422.354 119.162C440.391 124.246 466.298 121.822 484.905 113.311C491.546 110.273 497.006 106.672 502.195 101.906C515.796 89.4154 523.58 75.9217 527.064 58.7925C529.432 47.1524 529.424 35.9353 527.037 21.9148C525.963 15.6033 525.739 15.8086 525.021 23.7673ZM310.367 148.895C301.566 150.273 296.194 152.208 286.959 157.327C272.863 165.14 250.953 174.846 222.827 185.736C217.462 187.813 213.011 189.562 212.935 189.623C212.643 189.858 214.156 192.071 216.642 195.046C222.034 201.498 231.412 209.397 247.213 220.799L253.314 225.202L254.609 224.648C255.322 224.343 265.971 219.846 278.274 214.654L300.644 205.214V202.828C300.644 196.169 302.033 185.384 303.87 177.772C306.12 168.447 311.317 156.476 315.64 150.657C316.489 149.514 317.183 148.51 317.183 148.425C317.183 148.091 314.18 148.298 310.367 148.895ZM78.7725 182.527C68.5018 189.85 67.188 191.373 61.8964 202.094C56.0166 214.007 54.0947 216.67 48.8824 220.125C44.1446 223.266 40.7003 226.81 38.6172 230.687C36.4883 234.65 35.4981 237.906 33.8756 246.287C30.3715 264.387 27.2134 272.013 16.2375 288.875L10.4989 297.691L12.1867 299.55C16.6569 304.473 16.6683 307.872 12.2355 313.986C10.4799 316.407 10.1529 317.145 10.1529 318.688V320.518L14.4996 322.093C25.2224 325.981 35.2654 328.364 44.1773 329.137C48.256 329.491 49.0079 329.453 51.4188 328.771C58.092 326.884 69.7617 318.78 83.157 306.73C89.7526 300.797 90.6983 299.789 91.1232 298.245C91.3882 297.282 93.0379 293.074 94.7893 288.894C99.7413 277.077 100.911 272.126 100.896 263.048C100.875 249.601 97.4763 239.338 89.7021 229.238C85.5352 223.824 85.5246 223.804 85.4864 221.392C85.4287 217.746 87.5071 216.734 94.3059 217.099C102.056 217.514 110.314 220.062 116.625 223.984C119.826 225.974 124.062 229.822 125.761 232.283C126.434 233.259 127.081 234.053 127.198 234.048C127.314 234.042 127.878 233.459 128.45 232.753C129.023 232.046 130.215 230.97 131.101 230.36C131.986 229.75 132.711 229.053 132.711 228.811C132.711 227.196 127.156 216.93 123.473 211.738C116.05 201.273 103.883 190.323 89.4549 181.123C87.2391 179.71 85.1849 178.552 84.8897 178.551C84.5946 178.549 81.8415 180.339 78.7725 182.527ZM397.773 224.354C392.919 230.98 387.992 236.801 381.839 243.181L378.845 246.287L379.184 249.004C379.371 250.498 379.931 253.708 380.427 256.136L381.33 260.55L387.953 264.51C391.597 266.688 398.966 270.962 404.331 274.008C415.973 280.617 417.203 281.668 420.445 287.771C425.678 297.621 431.65 317.822 432.394 328.187C432.694 332.363 432.585 332.506 428.664 333.084C421.955 334.073 417.265 338.949 417.265 344.936C417.265 346.937 417.394 347.231 418.869 348.581C420.232 349.828 420.855 350.094 423.004 350.346C426.571 350.763 439.007 349.955 441.754 349.127C448.586 347.068 451.502 340.519 451.075 328.194C450.838 321.331 449.968 316.204 446.532 301.409C441.913 281.52 440.266 275.572 438.469 272.295C437.471 270.475 433.23 264.852 428.221 258.709C412.154 239.002 410.722 236.408 407.541 221.249C406.801 217.726 406.092 214.352 405.966 213.752C405.754 212.746 405.529 212.975 403.105 216.663C401.659 218.865 399.259 222.326 397.773 224.354ZM61.6635 245.886C63.0677 246.231 64.1932 246.837 65.0396 247.704L66.3098 249.004L63.7123 249.268C58.4737 249.8 57.1476 251.319 59.8286 253.715C61.882 255.55 62.6101 257.643 61.7327 259.188C58.4423 264.977 48.5788 264.236 46.7154 258.058C45.7977 255.015 47.6 250.262 50.6453 247.693C53.4263 245.346 57.0479 244.752 61.6635 245.886ZM183.086 261.84C178.251 297.985 173.465 323.409 170.309 329.721C169 332.339 168.263 332.658 163.534 332.659C160.6 332.659 159.67 332.829 157.519 333.763C153.185 335.643 150.385 339.229 149.873 343.558C149.585 345.996 150.393 347.81 152.354 349.129C153.439 349.858 154.257 349.944 161.147 350.061C170.058 350.212 173.488 349.809 177.077 348.192C180.218 346.776 183.645 343.555 185.566 340.213C186.59 338.43 202.676 291.554 212.228 262.516L212.763 260.889L206.981 259.649C200.112 258.175 193.813 256.315 188.763 254.271C186.739 253.451 184.902 252.816 184.681 252.859C184.459 252.903 183.742 256.944 183.086 261.84Z" fill="white"/>
</svg>
