<svg width="608" height="360" viewBox="0 0 608 360" fill="none" xmlns="http://www.w3.org/2000/svg">
<path fill-rule="evenodd" clip-rule="evenodd" d="M417.47 0.324977C368.847 3.25761 323.564 25.8705 291.49 63.2371C276.422 80.7914 264.924 101.152 257.443 123.531L255.528 129.259L155.078 129.102L54.6289 128.944L27.2546 153.331C12.1987 166.744 -0.0656985 177.855 0.000264843 178.022C0.0662282 178.189 0.945871 179.239 1.95428 180.354L3.78861 182.381L30.3936 158.642L56.9989 134.902L95.7079 135.142C116.998 135.274 161.32 135.382 194.201 135.382C250.977 135.382 253.972 135.417 253.72 136.073C253.135 137.6 250.354 152.481 249.79 157.108C247.321 177.351 248.001 195.91 251.932 215.571C262.777 269.82 298.321 316.146 348.316 341.193C379.789 356.961 416.082 363.072 451.381 358.546C471.757 355.934 490.345 350.177 509.262 340.621C519.588 335.405 526.973 330.854 535.655 324.357C559.28 306.679 577.934 284.106 590.461 258.036C599.45 239.33 604.6 221.493 607.286 199.77C607.845 195.251 607.996 191.083 608 180.019C608.006 165.4 607.697 161.166 605.81 149.998C597.538 101.026 568.98 57.3118 527.234 29.7184C494.869 8.32611 456.256 -2.01433 417.47 0.324977ZM447.841 7.15803C485.501 11.6178 519.847 27.5363 547.164 53.1913C574.85 79.1939 593.473 113.678 599.702 150.472C601.55 161.385 602.034 167.52 602.034 180.019C602.034 192.518 601.55 198.654 599.702 209.567C595.209 236.106 584.027 262.083 567.739 283.815C562.291 291.083 558.687 295.254 551.997 302.031C523.753 330.64 487.786 348.197 447.841 352.873C440.53 353.729 422.989 354.05 415.605 353.463C374.058 350.162 336.753 333.358 307.268 304.661C267.734 266.184 248.875 212.253 255.878 157.701C262.152 108.825 289.286 64.6011 330.242 36.4986C355.017 19.4993 383.185 9.46377 414.07 6.63424C420.108 6.08121 441.556 6.41382 447.841 7.15803Z" fill="#5F6C84"/>
</svg>
