<svg width="50" height="50" viewBox="0 0 68 67" fill="none" xmlns="http://www.w3.org/2000/svg">
<path d="M53.4008 19.3769C53.4008 19.8752 53.3731 20.3457 53.3177 20.8163C52.9856 24.8301 51.2139 28.4564 48.5288 31.1138C45.5393 34.1311 41.3871 35.9857 36.792 35.9857H28.1277C26.7436 35.9857 25.581 37.0099 25.3873 38.3663L23.2834 52.9821C23.1174 54.0617 22.3423 54.9475 21.3181 55.2243C21.069 55.335 20.8198 55.3627 20.543 55.3627H15.1451C13.4289 55.3627 12.1279 53.8402 12.4047 52.1516L19.0205 12.4843C19.6848 8.47051 23.1451 5.53625 27.2142 5.53625H39.5601C47.2002 5.53625 53.4008 11.7369 53.4008 19.3769Z" fill="#5F6073"/>
<path d="M58.9371 30.4496C58.9371 34.2696 57.3869 37.7298 54.8956 40.2488C52.3766 42.7401 48.9164 44.2902 45.0964 44.2902H39.1449C37.7885 44.2902 36.6259 45.2591 36.4044 46.6155L34.4114 58.5738C34.19 59.9302 33.0273 60.8991 31.6709 60.8991H23.5603C23.062 60.8991 22.6191 60.7883 22.2316 60.5669C21.6226 60.2347 22.0101 59.4319 22.6745 59.1551C25.1658 58.3524 26.9928 56.2209 27.3803 53.5635L29.1519 41.3283C29.2626 40.6363 29.844 40.138 30.5083 40.138H36.792C42.3559 40.138 47.5877 37.9789 51.4631 34.0758C53.7606 31.8059 55.4769 29.0102 56.4734 25.9929C56.6948 25.3009 57.6084 25.1624 57.9129 25.7991C58.5772 27.2385 58.9371 28.7887 58.9371 30.4496Z" fill="#5F6073"/>
</svg>
