<svg width="267" height="39" viewBox="0 0 267 39" fill="none" xmlns="http://www.w3.org/2000/svg">
<path d="M35.6351 19.2562C35.6351 28.2682 28.3295 35.5738 19.3176 35.5738C10.3056 35.5738 3 28.2682 3 19.2562M166.176 19.2562C166.176 28.2682 158.87 35.5738 149.858 35.5738C140.846 35.5738 133.54 28.2682 133.54 19.2562M100.905 19.2562C100.905 28.2682 93.5997 35.5738 84.5878 35.5738C75.5759 35.5738 68.2702 28.2682 68.2702 19.2562M231.446 19.2562C231.446 28.2682 224.14 35.5738 215.128 35.5738C206.116 35.5738 198.811 28.2682 198.811 19.2562M35.6351 19.4403C35.6351 10.4283 42.9407 3 51.9527 3C60.9646 3 68.2702 10.3056 68.2702 19.3176M166.176 19.4403C166.176 10.4283 173.481 3 182.493 3C191.505 3 198.811 10.3056 198.811 19.3176M100.905 19.4403C100.905 10.4283 108.211 3 117.223 3C126.235 3 133.54 10.3056 133.54 19.3176M231.446 19.4403C231.446 10.4283 238.751 3 247.763 3C256.775 3 264.081 10.3056 264.081 19.3176" stroke="#252B2B" stroke-width="5.64367"/>
</svg>
