<svg width="50" height="50" viewBox="0 0 91 28" fill="none" xmlns="http://www.w3.org/2000/svg">
<path opacity="0.8" d="M33.0398 27.1658L37.6173 1.42029H44.7689L40.3341 27.1658H33.0398Z" fill="#5F6073"/>
<path opacity="0.8" d="M33.0398 27.1658L38.8968 1.42029H44.7539L40.3341 27.1658H33.0398Z" fill="#5F6073"/>
<path opacity="0.8" d="M66.2296 1.70741C64.1262 0.9221 61.8953 0.534069 59.6502 0.563033C52.4986 0.563033 47.3504 4.13884 47.3504 9.28854C47.3504 13.1497 50.9262 15.1456 53.7872 16.4401C56.6481 17.7347 57.5056 18.5862 57.5056 19.7291C57.5056 21.4457 55.2169 22.3032 53.215 22.3032C50.8477 22.3556 48.4997 21.8666 46.3502 20.8735L45.3485 20.444L44.3468 26.301C46.9535 27.2642 49.7122 27.751 52.4911 27.7382C60.0722 27.7382 65.0778 24.1624 65.0778 18.7274C65.0778 15.7238 63.2185 13.435 58.9203 11.5758C56.3462 10.2887 54.7724 9.57388 54.7724 8.28683C54.7724 7.14245 56.0594 5.99807 58.9203 5.99807C60.7826 5.94224 62.6354 6.28372 64.3554 6.99978L65.0702 7.28512L66.2146 1.70741H66.2296Z" fill="#5F6073"/>
<path opacity="0.8" d="M66.2296 1.70741C64.1262 0.9221 61.8953 0.534069 59.6502 0.563033C52.4986 0.563033 48.6375 4.13884 48.6375 9.28854C48.6375 13.1497 50.9262 15.1456 53.7872 16.4401C56.6481 17.7347 57.5056 18.5862 57.5056 19.7291C57.5056 21.4457 55.2169 22.3032 53.215 22.3032C50.8477 22.3556 48.4997 21.8666 46.3502 20.8735L45.3485 20.444L44.3468 26.301C46.9535 27.2642 49.7122 27.751 52.4911 27.7382C60.0722 27.7382 65.0778 24.1624 65.0778 18.7274C65.0778 15.7238 63.2185 13.435 58.9203 11.5758C56.3462 10.2887 54.7724 9.57388 54.7724 8.28683C54.7724 7.14245 56.0594 5.99807 58.9203 5.99807C60.7826 5.94224 62.6354 6.28372 64.3554 6.99978L65.0702 7.28512L66.2146 1.70741H66.2296Z" fill="#5F6073"/>
<path opacity="0.8" d="M78.5235 1.42029C76.807 1.42029 75.5199 1.57047 74.8051 3.27953L64.0776 27.1583H71.8014L73.2312 22.8676H82.3922L83.2497 27.1583H90.1085L84.1012 1.42029H78.5235ZM75.2406 18.5769C75.6701 17.2899 78.094 10.9958 78.094 10.9958C78.094 10.9958 78.6662 9.42192 79.0957 8.42172L79.5252 10.8531C79.5252 10.8531 80.9474 17.2974 81.2478 18.7271H75.2406V18.5769Z" fill="#5F6073"/>
<path opacity="0.8" d="M80.2401 1.42029C78.5235 1.42029 77.2365 1.57047 76.5216 3.27953L64.0776 27.1583H71.8014L73.2312 22.8676H82.3922L83.2497 27.1583H90.1085L84.1012 1.42029H80.2401ZM75.2406 18.5769C75.8128 17.1472 78.094 10.9958 78.094 10.9958C78.094 10.9958 78.6662 9.42192 79.0957 8.42172L79.5252 10.8531C79.5252 10.8531 80.9474 17.2974 81.2478 18.7271H75.2406V18.5769Z" fill="#5F6073"/>
<path opacity="0.8" d="M19.8809 19.4423L19.1661 15.7238C17.369 10.8341 13.7971 6.80007 9.16101 4.42418L15.5978 27.3087H23.3216L34.9065 1.56323H27.1827L19.8809 19.4423Z" fill="#5F6073"/>
<path opacity="0.8" d="M19.8809 19.4423L19.1661 15.7238C17.369 10.8341 13.7971 6.80007 9.16101 4.42418L15.5978 27.3087H23.3216L34.9065 1.56323H28.6139L19.8809 19.4423Z" fill="#5F6073"/>
<path opacity="0.8" d="M0 1.42051L1.28705 1.70585C10.4481 3.85194 16.7346 9.28698 19.1586 15.7222L16.5845 3.55758C16.1549 1.84102 14.8679 1.4115 13.2955 1.4115L0 1.42051Z" fill="#5F6073"/>
<path opacity="0.8" d="M0 1.42029C9.16103 3.55886 16.7346 9.14408 19.1661 15.5733L16.7346 5.4181C16.5582 4.64139 16.1216 3.94833 15.4971 3.45391C14.8727 2.95948 14.098 2.69341 13.3015 2.69983L0 1.42029Z" fill="#5F6073"/>
<path opacity="0.8" d="M0 1.42029C9.16103 3.55886 16.7346 9.14408 19.1661 15.5733L17.4495 10.0016C17.02 8.28505 16.4478 6.56848 14.4459 5.85362L0 1.42029Z" fill="#5F6073"/>
<g opacity="0.8">
<path opacity="0.8" d="M27.0326 18.5772L22.1698 13.7143L19.881 19.1494L19.3088 15.5736C17.5083 10.6854 13.9338 6.6541 9.29626 4.28149L15.733 27.166H23.4568L27.0326 18.5772Z" fill="#5F6073"/>
<path opacity="0.8" d="M40.3341 27.166L34.1767 20.8734L33.0398 27.166H40.3341Z" fill="#5F6073"/>
<path opacity="0.8" d="M56.7833 18.298C57.3555 18.8702 57.6409 19.2997 57.4982 19.8719C57.4982 21.5884 55.2094 22.446 53.2075 22.446C50.8403 22.4984 48.4923 22.0094 46.3428 21.0162L45.3411 20.5867L44.3394 26.4438C46.9494 27.4055 49.7111 27.8897 52.4927 27.8735C57.0702 27.8735 60.7887 26.5864 62.9332 24.2977L56.7833 18.298Z" fill="#5F6073"/>
<path opacity="0.8" d="M65.078 27.1658H71.8016L73.2313 22.8752H82.3923L83.2499 27.1658H90.1086L87.6772 16.7252L79.0959 8.42926L79.5254 10.718C79.5254 10.718 80.9476 17.1533 81.248 18.577H75.2407C75.8129 17.1473 78.0942 10.9958 78.0942 10.9958C78.0942 10.9958 78.6664 9.42196 79.0959 8.42175" fill="#5F6073"/>
</g>
</svg>
